<svg width="21" height="24" viewBox="0 0 21 24" fill="none" xmlns="http://www.w3.org/2000/svg">
<path d="M4.94796 14.3998L2.13123 19.2005L4.94796 24L5.71798 22.6883C7.02065 20.4704 7.02065 17.9294 5.71798 15.7115L4.94796 14.3998Z" fill="#FB6514"/>
<path d="M1.477 13.088L2.24703 14.3997L5.83378 8.28848C7.13645 6.06938 7.13645 3.52964 5.83378 1.31171L5.06375 0L1.477 6.11121C0.174334 8.32914 0.174334 10.8689 1.477 13.088Z" fill="#FB6514"/>
<path d="M14.8666 2.4978C12.9888 5.69748 11.1109 8.89715 9.23193 12.0968C11.1098 15.2965 12.9876 18.4974 14.8666 21.697H20.5C18.6222 18.4974 16.7444 15.2965 14.8666 12.0968C16.7444 8.89715 18.6222 5.69748 20.5 2.4978H14.8666Z" fill="#FB6514"/>
</svg>
