<svg width="93" height="24" viewBox="0 0 93 24" fill="none" xmlns="http://www.w3.org/2000/svg">
<path d="M4.44808 14.3998L1.63135 19.2005L4.44808 24L5.2181 22.6883C6.52077 20.4704 6.52077 17.9294 5.2181 15.7115L4.44808 14.3998Z" fill="#FB6514"/>
<path d="M0.976998 13.088L1.74703 14.3997L5.33378 8.28848C6.63645 6.06938 6.63645 3.52964 5.33378 1.31171L4.56375 0L0.976998 6.11121C-0.325666 8.32914 -0.325666 10.8689 0.976998 13.088Z" fill="#FB6514"/>
<path d="M14.3666 2.4978C12.4888 5.69748 10.6109 8.89715 8.73193 12.0968C10.6098 15.2965 12.4876 18.4974 14.3666 21.697H20C18.1222 18.4974 16.2444 15.2965 14.3666 12.0968C16.2444 8.89715 18.1222 5.69748 20 2.4978H14.3666Z" fill="#FB6514"/>
<path d="M28.4248 18.667C27.5898 18.667 27.0977 18.1572 27.0977 17.2871V7.03027C27.0977 6.15137 27.5898 5.6416 28.4248 5.6416C29.2598 5.6416 29.752 6.15137 29.752 7.03027V11.4248H29.8311L34.6035 6.21289C34.9727 5.80859 35.3066 5.6416 35.7461 5.6416C36.4492 5.6416 36.9941 6.17773 36.9941 6.86328C36.9941 7.23242 36.8623 7.52246 36.5283 7.87402L33.0303 11.5391L36.8359 16.1621C37.2314 16.6543 37.4072 17.0322 37.4072 17.3926C37.4072 18.1133 36.8535 18.6758 36.124 18.6758C35.5791 18.6758 35.21 18.4736 34.7969 17.9463L31.0176 13.2969L29.752 14.624V17.2871C29.752 18.1572 29.2598 18.667 28.4248 18.667ZM41.8008 18.6494C40.0078 18.6494 38.6455 17.4893 38.6455 15.793C38.6455 14.0791 39.9639 13.0859 42.3193 12.9453L44.6924 12.8047V12.1807C44.6924 11.3018 44.0771 10.792 43.1104 10.792C42.3281 10.792 41.8535 11.0469 41.2822 11.7852C41.001 12.1016 40.6758 12.2598 40.2627 12.2598C39.6387 12.2598 39.1904 11.8555 39.1904 11.2754C39.1904 11.0732 39.2344 10.8887 39.3223 10.6953C39.7617 9.57031 41.2734 8.87598 43.2246 8.87598C45.6416 8.87598 47.2148 10.124 47.2148 12.0225V17.3926C47.2148 18.2451 46.6963 18.6846 45.9668 18.6846C45.2725 18.6846 44.7891 18.2979 44.7363 17.542V17.0586H44.6836C44.1562 18.0605 42.9785 18.6494 41.8008 18.6494ZM42.6445 16.7949C43.7695 16.7949 44.6924 16.0654 44.6924 15.0459V14.3604L42.7061 14.4834C41.748 14.5537 41.2031 14.9844 41.2031 15.6523C41.2031 16.3555 41.7832 16.7949 42.6445 16.7949ZM50.7207 18.6846C49.9736 18.6846 49.4375 18.2275 49.4375 17.3486V6.96875C49.4375 6.08984 49.9736 5.62402 50.7207 5.62402C51.4766 5.62402 52.0039 6.08984 52.0039 6.96875V17.3486C52.0039 18.2275 51.4766 18.6846 50.7207 18.6846ZM55.5537 18.6846C54.8154 18.6846 54.2969 18.2451 54.2969 17.3838V6.96875C54.2969 6.08984 54.833 5.62402 55.5801 5.62402C56.3359 5.62402 56.8633 6.08984 56.8633 6.96875V10.7129H56.916C57.4346 9.59668 58.4893 8.92871 59.8252 8.92871C62.207 8.92871 63.6572 10.748 63.6572 13.7891C63.6572 16.8213 62.2158 18.6494 59.834 18.6494C58.4541 18.6494 57.4082 17.9814 56.8809 16.8828H56.8281V17.3838C56.8281 18.2363 56.3008 18.6846 55.5537 18.6846ZM58.9551 16.584C60.2295 16.584 61.0293 15.5117 61.0293 13.7891C61.0293 12.0752 60.2295 10.9854 58.9551 10.9854C57.707 10.9854 56.8545 12.1016 56.8545 13.7891C56.8545 15.4941 57.707 16.584 58.9551 16.584ZM68.8418 18.6758C66.8027 18.6758 65.4492 17.3486 65.4492 15.1514V10.2295C65.4492 9.35059 65.9854 8.88477 66.7324 8.88477C67.4883 8.88477 68.0156 9.35059 68.0156 10.2295V14.6152C68.0156 15.8721 68.6396 16.54 69.7734 16.54C70.916 16.54 71.6279 15.7227 71.6279 14.4746V10.2295C71.6279 9.35059 72.1641 8.88477 72.9111 8.88477C73.667 8.88477 74.1943 9.35059 74.1943 10.2295V17.3838C74.1943 18.2363 73.6934 18.6846 72.9551 18.6846C72.2168 18.6846 71.7158 18.2363 71.7158 17.3838V16.8037H71.6631C71.1973 17.9902 70.2656 18.6758 68.8418 18.6758ZM77.6475 18.6846C76.874 18.6846 76.3643 18.2012 76.3643 17.3486V10.1768C76.3643 9.35938 76.8652 8.88477 77.6035 8.88477C78.3242 8.88477 78.8164 9.35938 78.8164 10.1768V10.792H78.8691C79.1152 9.62305 79.8887 8.92871 80.8291 8.92871C81.1719 8.92871 81.4443 9.00781 81.6289 9.16602C81.875 9.35938 81.998 9.67578 81.998 10.1152C81.998 10.5195 81.875 10.8271 81.6289 11.0381C81.3828 11.249 81.0137 11.3633 80.5127 11.3721C79.3438 11.3896 78.9307 12.0488 78.9307 13.165V17.3486C78.9307 18.2012 78.4297 18.6846 77.6475 18.6846ZM84.7041 18.6846C83.957 18.6846 83.4209 18.2275 83.4209 17.3486V10.1768C83.4209 9.37695 83.8867 8.88477 84.6602 8.88477C85.4336 8.88477 85.9434 9.37695 85.9434 10.1855V10.7129H85.9961C86.4971 9.54395 87.4463 8.90234 88.8965 8.90234C90.9883 8.90234 92.166 10.2207 92.166 12.4268V17.3486C92.166 18.2275 91.6299 18.6846 90.8828 18.6846C90.127 18.6846 89.5996 18.2275 89.5996 17.3486V12.9629C89.5996 11.7324 89.0195 11.0293 87.8682 11.0293C86.7168 11.0293 85.9873 11.873 85.9873 13.0947V17.3486C85.9873 18.2275 85.46 18.6846 84.7041 18.6846Z" fill="#FB6514"/>
</svg>
